<svg xmlns="http://www.w3.org/2000/svg" xmlns:xlink="http://www.w3.org/1999/xlink" width="400" height="522.245" viewBox="0 0 400 522.245">
  <defs>
    <clipPath id="clip-path">
      <rect id="Rectángulo_347666" data-name="Rectángulo 347666" width="375.195" height="443.001" fill="none"/>
    </clipPath>
    <clipPath id="clip-path-3">
      <rect id="Rectángulo_347662" data-name="Rectángulo 347662" width="45.796" height="72.389" fill="none"/>
    </clipPath>
    <clipPath id="clip-path-4">
      <rect id="Rectángulo_347663" data-name="Rectángulo 347663" width="25.266" height="102.876" fill="none"/>
    </clipPath>
    <clipPath id="clip-path-5">
      <rect id="Rectángulo_347664" data-name="Rectángulo 347664" width="65.924" height="43.854" fill="none"/>
    </clipPath>
    <clipPath id="clip-path-6">
      <rect id="Rectángulo_347668" data-name="Rectángulo 347668" width="400" height="522.245" transform="translate(18.512 -79)" fill="#ffa031"/>
    </clipPath>
  </defs>
  <g id="Grupo_1005689" data-name="Grupo 1005689" transform="translate(-1020 -9679)">
    <g id="Grupo_1005686" data-name="Grupo 1005686" transform="translate(1044.806 9758)">
      <g id="Grupo_1005685" data-name="Grupo 1005685" clip-path="url(#clip-path)">
        <g id="Grupo_1005684" data-name="Grupo 1005684">
          <g id="Grupo_1005683" data-name="Grupo 1005683" clip-path="url(#clip-path)">
            <path id="Trazado_719624" data-name="Trazado 719624" d="M233.747,112.325l14.8,20.319c1.845,0,37.539,16.526,37.539,16.526l-16.6,130.983,16.6,146.972H115.133s9.782-218.493,6.707-231.407l11.741-75.45,32.618-.424,17.264-11.487Z" transform="translate(16.869 15.876)" fill="#e0e0e0"/>
            <path id="Trazado_719625" data-name="Trazado 719625" d="M231.792,129.347c1.035,1.062-17.636,22.518-17.636,22.518l-37.331,60.489L164.466,122l12.62-13.313,51.2,2.6Z" transform="translate(24.097 15.925)" fill="#fff"/>
            <path id="Trazado_719626" data-name="Trazado 719626" d="M267.408,143.954A42.26,42.26,0,0,1,280.377,158c5.365,9.388,56.776,87.678,59.011,104.638s-10.066,47.668-40.466,27.1-56.3-70.561-56.3-70.561Z" transform="translate(35.549 21.092)" fill="#e0e0e0"/>
            <path id="Trazado_719627" data-name="Trazado 719627" d="M292.5,202.577c.965.965,7.511,9.179,7.511,9.179l-10.889,44.617-11.417-25Z" transform="translate(40.689 29.681)" fill="#ffc09d"/>
            <path id="Trazado_719628" data-name="Trazado 719628" d="M328.652,242.959a5.749,5.749,0,0,0-.425-.815l-1.316-2.3c-1.174-1.985-2.955-4.827-5.313-8.277a211.745,211.745,0,0,0-21.016-25.742l-.368-.385-.127.523c-.655,2.666-1.339,5.457-2.037,8.3-3.586,14.785-6.831,28.168-9.2,37.912-1.14,4.821-2.065,8.739-2.72,11.505q-.451,1.986-.71,3.136l-.171.819a1.036,1.036,0,0,0-.038.283,1,1,0,0,0,.1-.269c.061-.214.135-.479.228-.8.2-.758.472-1.8.819-3.109.7-2.755,1.688-6.658,2.9-11.459,2.407-9.734,5.712-23.1,9.365-37.871.695-2.845,1.378-5.637,2.029-8.3l-.5.138a226.079,226.079,0,0,1,21.114,25.549c2.4,3.413,4.224,6.216,5.452,8.165q.887,1.417,1.4,2.244a5.946,5.946,0,0,0,.519.76" transform="translate(41.789 30.101)" fill="#263238"/>
            <path id="Trazado_719629" data-name="Trazado 719629" d="M281.614,236.207s-.828,27.2,1.7,28.034c0,0,1.505,1.03,3.184-3.829,1.83-5.293,2.3-8.48,2.075-8.966l-6.959-15.238" transform="translate(41.242 34.609)" fill="#263238"/>
            <path id="Trazado_719630" data-name="Trazado 719630" d="M146.666,126.053s-14.985,2.313-15.677,2.313-3.459-5.073-8.993-4.381-4.382,5.534-9.686,4.381-1.153-5.765-7.379-6.457-13.607.462-14.99,0-31.825-53.5-32.516-53.04-31.593,38.743-31.593,38.743,19.6,52.117,28.134,63.878a36.664,36.664,0,0,0,25.828,15.452c6.227.691,43.212.92,50.13,4.379s5.49,16.495,5.49,16.495l25.324-59.386Z" transform="translate(3.785 10.09)" fill="#e0e0e0"/>
            <path id="Trazado_719631" data-name="Trazado 719631" d="M118.619,142.452a3.332,3.332,0,0,0,0,.723c.028.535.063,1.221.107,2.067.112,1.869.268,4.443.459,7.591.386,6.41.864,15.268,1.22,25.059s.511,18.664.587,25.086c.038,3.154.068,5.733.089,7.6.017.846.032,1.532.042,2.068a3.324,3.324,0,0,0,.056.721,3.264,3.264,0,0,0,.064-.72c.018-.537.041-1.221.07-2.068.049-1.8.086-4.4.1-7.608.032-6.425-.062-15.3-.414-25.105s-.9-18.66-1.4-25.065c-.246-3.2-.469-5.795-.648-7.582-.089-.843-.162-1.525-.218-2.058a3.345,3.345,0,0,0-.117-.714" transform="translate(17.377 20.872)" fill="#263238"/>
            <path id="Trazado_719632" data-name="Trazado 719632" d="M175.283,409.411c.165,0,.3-47.082.3-105.147,0-58.085-.133-105.156-.3-105.156s-.3,47.071-.3,105.156c0,58.065.133,105.147.3,105.147" transform="translate(25.638 29.173)" fill="#263238"/>
            <path id="Trazado_719633" data-name="Trazado 719633" d="M175.245,209.283a1.057,1.057,0,0,0,.244-.162l.676-.518,2.568-2.028c2.26-1.723,5.556-4.184,9.786-7s9.377-6,15.094-9.54,11.982-7.5,18.164-12.223l2.293-1.774,2.209-1.821c1.466-1.2,2.864-2.433,4.225-3.663a54.57,54.57,0,0,0,7.209-7.756,26.311,26.311,0,0,0,4.4-8.519,29.769,29.769,0,0,0,1.016-8.293A74.391,74.391,0,0,0,241.86,134c-.251-1.362-.451-2.439-.6-3.222-.07-.338-.127-.612-.174-.835a.147.147,0,1,0-.06.01l.116.844c.117.788.279,1.87.484,3.239a80.7,80.7,0,0,1,1.074,11.956,29.659,29.659,0,0,1-1.07,8.156,25.974,25.974,0,0,1-4.363,8.326,54.624,54.624,0,0,1-7.161,7.652c-1.355,1.22-2.752,2.45-4.213,3.641l-2.2,1.809-2.284,1.766c-6.156,4.7-12.4,8.655-18.093,12.231s-10.838,6.778-15.039,9.657-7.474,5.384-9.694,7.166c-1.1.9-1.933,1.632-2.5,2.119l-.639.564c-.141.13-.211.2-.2.208" transform="translate(25.676 18.997)" fill="#263238"/>
            <path id="Trazado_719634" data-name="Trazado 719634" d="M179.636,210.936a.976.976,0,0,0-.1-.258l-.358-.727-1.423-2.769-5.3-10.148c-2.24-4.3-4.9-9.4-7.842-15.06-2.914-5.683-6.182-11.915-9.326-18.568-3.061-6.7-5.6-13.253-7.819-19.242-.525-1.492-1.142-2.978-1.526-4.374a7.911,7.911,0,0,1,.366-4.2,22.287,22.287,0,0,1,4.035-6.649A63.572,63.572,0,0,1,158.513,121c1.041-.86,1.867-1.507,2.426-1.945l.637-.5a1.034,1.034,0,0,0,.208-.183.9.9,0,0,0-.243.134l-.673.452c-.585.408-1.434,1.026-2.5,1.861a59.361,59.361,0,0,0-8.355,7.851,22.5,22.5,0,0,0-4.18,6.761,8.394,8.394,0,0,0-.409,4.467c.412,1.526,1,2.927,1.521,4.452,2.191,6.009,4.721,12.578,7.794,19.3,3.159,6.685,6.435,12.9,9.38,18.572,2.961,5.665,5.668,10.746,7.957,15,2.292,4.212,4.154,7.638,5.471,10.06l1.523,2.716c.165.281.3.511.409.7a.947.947,0,0,0,.158.228" transform="translate(21.285 17.344)" fill="#263238"/>
            <path id="Trazado_719635" data-name="Trazado 719635" d="M69.387,148.15a6.58,6.58,0,0,0,.887-1.105c.545-.731,1.289-1.821,2.171-3.191a92.933,92.933,0,0,0,6.1-11.175,92.86,92.86,0,0,0,4.514-11.907c.467-1.562.808-2.835,1.009-3.725a6.334,6.334,0,0,0,.261-1.393,6.6,6.6,0,0,0-.485,1.331c-.269.868-.672,2.12-1.188,3.659A119.727,119.727,0,0,1,78,132.43a119.392,119.392,0,0,1-5.918,11.2c-.832,1.393-1.52,2.513-2,3.284a6.43,6.43,0,0,0-.695,1.235" transform="translate(10.166 16.945)" fill="#263238"/>
            <path id="Trazado_719636" data-name="Trazado 719636" d="M64,141.748a5.7,5.7,0,0,0,.973-.891c.6-.6,1.445-1.488,2.472-2.6,2.053-2.228,4.813-5.377,7.723-8.971s5.413-6.954,7.162-9.427c.875-1.237,1.566-2.248,2.027-2.96a5.568,5.568,0,0,0,.668-1.137,5.658,5.658,0,0,0-.858,1q-.887,1.161-2.178,2.846c-1.833,2.405-4.384,5.713-7.286,9.3s-5.6,6.77-7.575,9.066L64.8,140.7a5.653,5.653,0,0,0-.8,1.048" transform="translate(9.376 16.961)" fill="#263238"/>
            <path id="Trazado_719637" data-name="Trazado 719637" d="M187.328,143.965l-7.542-1.513-8.412,6.442,5.151,12.914,10.064.73,6.185-9Z" transform="translate(25.109 20.872)" fill="#008b8a"/>
            <path id="Trazado_719638" data-name="Trazado 719638" d="M164.467,120.3a3.655,3.655,0,0,0,.045.648c.054.464.125,1.085.214,1.871.212,1.68.513,4.062.89,7.06.808,6.1,1.948,14.708,3.3,24.909l.062.472.371-.3L185.4,141.934l-.445-.084,3.385,5.953,6.842,12.013.175.307.267-.23c10.538-9.047,19.675-17.006,26.135-22.755,3.23-2.874,5.788-5.2,7.513-6.831a14.419,14.419,0,0,0,2.523-2.661.978.978,0,0,0-.158.179c-.111.11-.272.282-.5.494-.445.43-1.125,1.044-2,1.839-1.767,1.585-4.363,3.864-7.624,6.7-6.525,5.668-15.711,13.57-26.266,22.594l.441.077c-2.181-3.839-4.474-7.875-6.83-12.02l-3.387-5.952-.174-.3-.271.222c-5.71,4.659-11.115,9.072-16.011,13.069l.433.171c-1.438-10.188-2.651-18.782-3.512-24.879-.441-2.99-.791-5.365-1.039-7.04-.124-.782-.222-1.4-.3-1.861a3.654,3.654,0,0,0-.131-.635" transform="translate(24.097 17.626)" fill="#263238"/>
            <path id="Trazado_719639" data-name="Trazado 719639" d="M186.6,160.065l5.78,18.039-16.558,26.83-4.514-33,5.227-12.594Z" transform="translate(25.1 23.345)" fill="#008b8a"/>
            <path id="Trazado_719640" data-name="Trazado 719640" d="M263.691,321.047l4.194,17.127-50.034,4.893-4.142-18.524Z" transform="translate(31.312 47.039)" fill="#e0e0e0"/>
            <path id="Trazado_719641" data-name="Trazado 719641" d="M263.737,321.048a.914.914,0,0,0-.229,0l-.705.03-2.76.154-10.389.645-35.92,2.382-.334.023.073.328c1.255,5.628,2.606,11.688,4,17.948.044.195.087.391.13.579l.057.258.263-.026,50.025-4.992.23-.023-.056-.222c-1.354-5.343-2.44-9.624-3.2-12.612q-.557-2.141-.87-3.343c-.1-.35-.172-.631-.232-.852a1.3,1.3,0,0,0-.089-.273,2.09,2.09,0,0,0,.055.319c.052.232.116.526.2.893q.28,1.223.783,3.405c.7,2.975,1.709,7.238,2.967,12.557l.173-.245-50.044,4.795.321.232c-.042-.188-.086-.383-.13-.579-1.4-6.259-2.762-12.316-4.024-17.943l-.26.35L249.5,322.2l10.434-.811,2.81-.236.733-.07a1.506,1.506,0,0,0,.259-.038" transform="translate(31.267 47.038)" fill="#263238"/>
            <path id="Trazado_719642" data-name="Trazado 719642" d="M152.962,325.517l-3.9,17.432-37.186-2.8,6.054-18.29Z" transform="translate(16.391 47.158)" fill="#e0e0e0"/>
            <path id="Trazado_719643" data-name="Trazado 719643" d="M153.014,325.555a4.885,4.885,0,0,0-.626-.1c-.473-.057-1.1-.135-1.892-.23-1.723-.2-4.152-.478-7.192-.828-6.263-.687-15.035-1.652-25.3-2.78l-.222-.024-.071.214c-1.873,5.639-3.926,11.822-6.072,18.282l-.12.365.382.029.327.024,36.865,2.7.191.015.04-.185c1.152-5.383,2.09-9.76,2.752-12.848.3-1.462.543-2.619.718-3.456.071-.36.128-.652.175-.887a1.29,1.29,0,0,0,.042-.29,2.258,2.258,0,0,0-.1.328c-.061.243-.136.545-.229.918-.2.845-.482,2.01-.836,3.483-.711,3.041-1.717,7.353-2.957,12.655l.232-.171c-9.654-.749-22.615-1.752-36.854-2.854l-.327-.024.26.391c2.134-6.468,4.173-12.653,6.034-18.3l-.292.19,25.129,2.483,7.275.685,1.958.172a6.172,6.172,0,0,0,.7.04" transform="translate(16.34 47.12)" fill="#263238"/>
            <path id="Trazado_719644" data-name="Trazado 719644" d="M148,229.309a6.345,6.345,0,0,0,.477.883l1.469,2.471c1.275,2.145,3.2,5.2,5.665,8.924s5.5,8.09,9,12.843c3.526,4.735,7.52,9.853,11.9,15.073,4.4,5.207,8.757,10.019,12.82,14.3,4.086,4.26,7.861,8.006,11.117,11.06s5.928,5.484,7.824,7.107l2.183,1.869a6.422,6.422,0,0,0,.788.621,6.2,6.2,0,0,0-.709-.712l-2.107-1.951c-1.847-1.675-4.481-4.144-7.687-7.239s-6.951-6.86-11.009-11.135c-4.035-4.3-8.374-9.111-12.762-14.309-4.369-5.211-8.37-10.31-11.913-15.017-3.518-4.728-6.592-9.055-9.086-12.75s-4.484-6.706-5.82-8.813l-1.563-2.41a6.354,6.354,0,0,0-.579-.82" transform="translate(21.684 33.598)" fill="#263238"/>
            <path id="Trazado_719645" data-name="Trazado 719645" d="M49.511,61.27c.774.619,8.863,22.447,8.863,22.447L27.684,108.64,23.5,74.429Z" transform="translate(3.444 8.977)" fill="#ffc09d"/>
            <path id="Trazado_719646" data-name="Trazado 719646" d="M50.22,53.034l2.322,4.18s8.824.929,5.728,7.275S20.962,83.375,20.962,83.375L19.724,68.824Z" transform="translate(2.89 7.77)" fill="#3076b6"/>
            <path id="Trazado_719647" data-name="Trazado 719647" d="M11.293,51.017s-3.751-7.052,1.5-11.854c.285-.261.531-.484.762-.691-.449-1.845-1.769-8.067.138-10.863,2.251-3.3,8.7-6.9,8.7-6.9s-2.7-5.1.9-8.1,13.054-2.551,13.054-2.551l11.555,3.9c.449,0,3.6,0,4.651,6.9s2.4,18.006,2.251,21.307-2.4,19.057-2.4,19.057L23.448,74.875S10.243,60.021,9.793,56.119s1.5-5.1,1.5-5.1" transform="translate(1.425 1.469)" fill="#3076b6"/>
            <path id="Trazado_719648" data-name="Trazado 719648" d="M1.5,64.781A26.285,26.285,0,0,1,27.722,47.035L42.334,4.276,55.964,8.933,41.354,51.694A26.278,26.278,0,1,1,1.5,64.781" transform="translate(0.012 0.627)" fill="#fff"/>
            <path id="Trazado_719649" data-name="Trazado 719649" d="M1.512,64.826s-.073.186-.19.558c-.12.4-.288.947-.5,1.664C.6,67.782.476,68.724.253,69.823c-.084.554-.109,1.158-.172,1.8-.026.323-.053.656-.081,1,.006.344.01.7.016,1.064A26.431,26.431,0,0,0,11.09,94.931,26.612,26.612,0,0,0,52.613,77.488a26.941,26.941,0,0,0,.273-5.728A24.245,24.245,0,0,0,51.9,66a25.752,25.752,0,0,0-2.269-5.5,26.807,26.807,0,0,0-3.495-4.936,28.715,28.715,0,0,0-4.6-4.071l.112.341c1.144-3.35,2.364-6.916,3.6-10.519C49.06,30.132,52.756,19.3,56.249,9.071l.093-.273-.273-.093L42.435,4.059l-.261-.089-.089.261L27.543,47.015l.2-.136a26.49,26.49,0,0,0-22,10A27.352,27.352,0,0,0,2.31,62.638c-.283.711-.476,1.262-.611,1.628s-.187.559-.187.559.091-.18.241-.54c.158-.381.377-.911.662-1.6a28.509,28.509,0,0,1,3.506-5.672,26.332,26.332,0,0,1,21.8-9.73l.152.008.049-.144L42.607,4.41l-.351.171L55.884,9.25,55.7,8.885c-3.5,10.232-7.2,21.057-11.027,32.237-1.23,3.6-2.449,7.17-3.593,10.52l-.071.208.183.133a28.21,28.21,0,0,1,4.5,3.978,26.271,26.271,0,0,1,3.421,4.823,25.217,25.217,0,0,1,2.224,5.377,27.7,27.7,0,0,1,.66,2.8,28.308,28.308,0,0,1,.313,2.833,26.463,26.463,0,0,1-.258,5.6A26.081,26.081,0,0,1,.237,73.683c-.01-.362-.021-.713-.03-1.055q.036-.511.069-.992C.33,71,.346,70.4.421,69.844c.2-1.093.31-2.034.507-2.769L1.377,65.4c.1-.378.135-.577.135-.577" transform="translate(0 0.582)" fill="#263238"/>
            <path id="Trazado_719650" data-name="Trazado 719650" d="M3.65,64.753C6.28,54.665,19.3,48.57,29.218,49.087L43.444,6.5,53.2,9.837,37.608,51.593c8.834,4.875,15.369,19.444,11.259,29.024C43.735,92.583,30.342,99.375,18.425,95.3S.195,78,3.65,64.753" transform="translate(0.397 0.953)" fill="#e0e0e0"/>
            <path id="Trazado_719651" data-name="Trazado 719651" d="M35.586,5.983l16.181,5.529a1.76,1.76,0,1,0,1.138-3.331L36.725,2.651a1.76,1.76,0,0,0-1.138,3.332" transform="translate(5.039 0.375)" fill="#fff"/>
            <path id="Trazado_719652" data-name="Trazado 719652" d="M35.6,6.007c.009-.025-.142-.08-.376-.255a1.717,1.717,0,0,1-.654-1.035,1.633,1.633,0,0,1,.679-1.675,1.581,1.581,0,0,1,1.114-.259,13.25,13.25,0,0,1,1.347.447c3.857,1.376,9.2,3.237,15.111,5.257a1.465,1.465,0,0,1-.15,2.814,1.521,1.521,0,0,1-.916-.079l-1.018-.343-1.971-.663c-2.543-.845-4.85-1.61-6.826-2.266-1.872-.6-3.427-1.1-4.62-1.478a10.128,10.128,0,0,0-1.72-.465,10.141,10.141,0,0,0,1.645.684l4.559,1.658,6.785,2.387,1.964.681,1.016.351a2.117,2.117,0,0,0,1.233.1,2.055,2.055,0,0,0,.214-3.95C47.106,5.9,41.742,4.1,37.85,2.831a11.906,11.906,0,0,0-1.437-.425,1.922,1.922,0,0,0-1.354.365,1.882,1.882,0,0,0-.712,2,1.763,1.763,0,0,0,.812,1.081c.274.154.44.169.444.155" transform="translate(5.023 0.351)" fill="#263238"/>
            <path id="Trazado_719653" data-name="Trazado 719653" d="M43.428,29.756c-1.017-3.05-.255-9.911,1.4-13.594.78-1.739,3.9-2.554,4.855-.694,1.333,2.6,4.546,14.161,4.8,18.481s-6.47,11.365-6.47,11.365l-4.925-7.427s1.357-5.081.342-8.131" transform="translate(6.296 2.111)" fill="#3076b6"/>
            <path id="Trazado_719654" data-name="Trazado 719654" d="M45.39,35.691a25.6,25.6,0,0,0-.909-5.446,25.663,25.663,0,0,0-1.492-5.318,25.782,25.782,0,0,0,.909,5.447,25.75,25.75,0,0,0,1.492,5.316" transform="translate(6.294 3.652)" fill="#263238"/>
            <path id="Trazado_719655" data-name="Trazado 719655" d="M6.2,59.3a20.636,20.636,0,1,0,38.016-2.567s-11.729-1.375-20.465,3.31S6.2,59.3,6.2,59.3" transform="translate(0.749 8.285)" fill="#008b8a"/>
            <g id="Grupo_1005676" data-name="Grupo 1005676" transform="translate(4.482 7.728)" opacity="0.4">
              <g id="Grupo_1005675" data-name="Grupo 1005675">
                <g id="Grupo_1005674" data-name="Grupo 1005674" clip-path="url(#clip-path-3)">
                  <path id="Trazado_719656" data-name="Trazado 719656" d="M49.705,8.6c-.134.3-14.718,43.132-14.718,43.132s-21.105,11.645-22.069,27.4L4.035,76.079s-3.465-25.046,26-26.756L44.261,6.74Z" transform="translate(-3.909 -6.74)" fill="#fff"/>
                </g>
              </g>
            </g>
            <path id="Trazado_719657" data-name="Trazado 719657" d="M37.589,10.578a2.478,2.478,0,0,1,1.143,3.773c-1.524,2.707-3.176,3.215-3.176,3.215s4.752.762,3.647,3.685a5.764,5.764,0,0,1-3.647,3.556s3.176,3.3-1.652,6.48l-3.811,1.778s1.778,3.939-1.906,7.878L24.5,44.882s-11.181,3.05-11.054.762.127-5.209,3.938-6.988c0,0-3.176-7.535.255-11.391a70.418,70.418,0,0,1,7.369-7.032s-3.558-2.364.509-5.883,9.02-5.3,12.069-3.773" transform="translate(1.97 1.469)" fill="#3076b6"/>
            <path id="Trazado_719658" data-name="Trazado 719658" d="M19.446,20.683c.1.172,3.185-2.225,7.757-3.272,4.559-1.108,8.39-.341,8.4-.539a7.258,7.258,0,0,0-2.47-.494,19.423,19.423,0,0,0-11.7,2.76,7.282,7.282,0,0,0-1.988,1.546" transform="translate(2.849 2.389)" fill="#263238"/>
            <path id="Trazado_719659" data-name="Trazado 719659" d="M17.215,27.356c.08.173,3.88-1.76,8.95-2.947,5.062-1.223,9.325-1.208,9.318-1.4A10.064,10.064,0,0,0,32.7,22.9,35.372,35.372,0,0,0,19.655,26a10.131,10.131,0,0,0-2.44,1.353" transform="translate(2.522 3.353)" fill="#263238"/>
            <path id="Trazado_719660" data-name="Trazado 719660" d="M15.817,34.294c.084.163,3.042-1.347,6.935-2.522,3.889-1.2,7.185-1.595,7.165-1.777a6.936,6.936,0,0,0-2.185.089A31.924,31.924,0,0,0,17.68,33.149a6.86,6.86,0,0,0-1.863,1.144" transform="translate(2.317 4.388)" fill="#263238"/>
            <path id="Trazado_719661" data-name="Trazado 719661" d="M16.886,41.762a12.333,12.333,0,0,0,2.875-.48,20.136,20.136,0,0,0,6.559-2.623C28.645,37.128,30.3,34.922,30.486,33a3.756,3.756,0,0,0-.374-2.157c-.251-.46-.484-.64-.509-.617a4.479,4.479,0,0,1,.464,2.715c-.259,1.708-1.849,3.748-4.077,5.214a23.4,23.4,0,0,1-6.337,2.713,16.452,16.452,0,0,0-2.768.889" transform="translate(2.474 4.429)" fill="#263238"/>
            <path id="Trazado_719662" data-name="Trazado 719662" d="M262.192,152.565V217.05l16.479,38.933a5.787,5.787,0,0,1-5.329,8.043H213.6a5.787,5.787,0,0,1-5.274-8.171l17.541-38.805V152.565Z" transform="translate(30.447 22.353)" fill="#fff"/>
            <path id="Trazado_719663" data-name="Trazado 719663" d="M262.229,152.589s-.2-.013-.607-.018l-1.821-.02-7.106-.046-26.793-.1h-.186v.186c-.023,16.729-.054,38.958-.089,64.485l.025-.112c-4.145,9.155-8.5,18.788-13.03,28.786q-1.7,3.751-3.425,7.567l-.864,1.912a8.492,8.492,0,0,0-.706,2.059,6.58,6.58,0,0,0,.049,2.213,6.128,6.128,0,0,0,2.366,3.679,6.592,6.592,0,0,0,2.019.968,8.629,8.629,0,0,0,2.208.2h10.843l28.317,0,13.589-.006c2.233-.008,4.426.015,6.639-.021a6.036,6.036,0,0,0,5.3-3.694,5.924,5.924,0,0,0,.414-3.292,14.311,14.311,0,0,0-1.092-3.043q-1.233-2.906-2.439-5.751-2.413-5.686-4.712-11.105c-3.067-7.218-5.971-14.057-8.687-20.452l.018.092c-.052-19.734-.094-35.876-.124-47.1-.026-5.572-.046-9.921-.06-12.9-.011-1.46-.021-2.58-.026-3.355-.007-.754-.024-1.129-.024-1.129s-.018.408-.026,1.179-.015,1.919-.026,3.4c-.014,2.99-.034,7.357-.058,12.951-.031,11.192-.073,27.284-.125,46.957v.048l.018.044c2.7,6.4,5.589,13.247,8.637,20.472q2.289,5.419,4.693,11.114,1.2,2.845,2.431,5.754a13.942,13.942,0,0,1,1.05,2.913,5.368,5.368,0,0,1-.38,2.983,5.471,5.471,0,0,1-4.81,3.346c-2.163.032-4.392.007-6.614.013l-13.589,0-28.317,0H214.27a7.992,7.992,0,0,1-2.056-.182,6.009,6.009,0,0,1-1.818-.871,5.535,5.535,0,0,1-2.139-3.321,5.978,5.978,0,0,1-.045-1.995,21.143,21.143,0,0,1,1.524-3.825l3.418-7.569c4.515-10,8.866-19.641,13-28.8l.025-.054v-.06c-.037-25.527-.066-47.756-.089-64.485l-.186.186,26.682-.1,7.149-.046,1.854-.02c.42-.006.642-.018.642-.018" transform="translate(30.411 22.33)" fill="#263238"/>
            <path id="Trazado_719664" data-name="Trazado 719664" d="M258.955,154.641v63.553l15.353,37.528a2.811,2.811,0,0,1-2.509,3.917H214.1a2.813,2.813,0,0,1-2.482-3.978l16.367-37.466V154.641Z" transform="translate(30.97 22.658)" fill="#e0e0e0"/>
            <path id="Trazado_719665" data-name="Trazado 719665" d="M223.14,220.007l-11.524,26.38a2.812,2.812,0,0,0,2.482,3.978h57.7a2.811,2.811,0,0,0,2.509-3.917l-11.266-27.538s-7.35-1.458-11.834-.832-9.186,3.649-14.768,3.649a53.354,53.354,0,0,1-13.3-1.721" transform="translate(30.97 31.93)" fill="#4db1f0"/>
            <path id="Trazado_719666" data-name="Trazado 719666" d="M222.388,155.129H260.84a1.911,1.911,0,0,0,0-3.821H222.388a1.911,1.911,0,0,0,0,3.821" transform="translate(32.304 22.169)" fill="#fff"/>
            <path id="Trazado_719667" data-name="Trazado 719667" d="M222.4,155.167a2.99,2.99,0,0,1-.842-.265,1.845,1.845,0,0,1-.892-2.1,1.785,1.785,0,0,1,1.157-1.212,2.856,2.856,0,0,1,1.012-.086l1.156.013,5.428.044,31.431.088a1.612,1.612,0,0,1,.288,3.2,9.031,9.031,0,0,1-1.054.029l-2.19,0-8.344.017-14.131.064-9.526.1-2.589.055a5.087,5.087,0,0,0-.9.061,5.182,5.182,0,0,0,.9.06l2.589.056,9.526.1,14.131.064,8.344.017,2.19,0a8.839,8.839,0,0,0,1.158-.034,2.207,2.207,0,0,0-.392-4.38l-31.431.087-5.428.045-1.156.011a3.12,3.12,0,0,0-1.105.126,2.033,2.033,0,0,0-1.289,1.423,2,2,0,0,0,.229,1.517,1.933,1.933,0,0,0,.832.753,1.449,1.449,0,0,0,.9.157" transform="translate(32.29 22.131)" fill="#263238"/>
            <g id="Grupo_1005679" data-name="Grupo 1005679" transform="translate(248.893 177.299)" opacity="0.4">
              <g id="Grupo_1005678" data-name="Grupo 1005678">
                <g id="Grupo_1005677" data-name="Grupo 1005677" clip-path="url(#clip-path-4)">
                  <path id="Trazado_719668" data-name="Trazado 719668" d="M241.961,157.125c-.228,11.107.346,55.832.39,59.253a2.231,2.231,0,0,1-.032.42l-6.379,38.678a2.439,2.439,0,0,1-2.405,2.042H219.526a2.438,2.438,0,0,1-2.255-3.364L232.5,217.029a2.437,2.437,0,0,0,.182-.925V157.079a2.438,2.438,0,0,1,2.439-2.439h4.4a2.434,2.434,0,0,1,2.438,2.485" transform="translate(-217.086 -154.641)" fill="#fff"/>
                </g>
              </g>
            </g>
            <path id="Trazado_719669" data-name="Trazado 719669" d="M300.059,206.24l-10.132-11.975s-11.723-24.537-15.583-26.949-9.649-6.755-18.334-7.237-23.882,3.376-22.435,6.271a5.736,5.736,0,0,0,4.343,3.137L227.3,171.726a4.323,4.323,0,0,0-3.318,5.25,5.926,5.926,0,0,0,4.764,4.795s-1.206,3.4.965,5.569,14.474,1.206,14.474,1.206,9.891,7.96,9.168,7.719-21.229-5.79-22.918-3.378-.241,4.1,1.689,5.066,21.47,7.237,23.159,8.443,15.439,15.845,19.782,16.728,4.825,1.848,4.825,1.848l5.79,13.991s9.166-8.443,13.991-18.092.385-14.631.385-14.631" transform="translate(32.8 23.448)" fill="#3076b6"/>
            <path id="Trazado_719670" data-name="Trazado 719670" d="M261.988,168.494a3.463,3.463,0,0,0-.986-.3c-.644-.154-1.578-.371-2.747-.554a59,59,0,0,0-9.21-.815,52.639,52.639,0,0,0-9.228.652,10.788,10.788,0,0,0-3.7,1.016,5.766,5.766,0,0,0,1.009-.181c.645-.117,1.583-.271,2.748-.417a69.275,69.275,0,0,1,9.161-.472,80.9,80.9,0,0,1,9.156.635,32.991,32.991,0,0,0,3.794.436" transform="translate(34.596 24.442)" fill="#263238"/>
            <path id="Trazado_719671" data-name="Trazado 719671" d="M252.384,177.633c0-.033-.318-.143-.9-.455a13.166,13.166,0,0,0-2.606-.953,34.154,34.154,0,0,0-9.077-.792,24.42,24.42,0,0,0-8.986,1.521,5.984,5.984,0,0,0-2.28,1.621c-.424.531-.449.945-.409.942a4.83,4.83,0,0,1,.585-.791,6.5,6.5,0,0,1,2.269-1.383,27.1,27.1,0,0,1,8.836-1.314,40.244,40.244,0,0,1,8.966.606c2.237.471,3.539,1.2,3.6,1" transform="translate(33.423 25.701)" fill="#263238"/>
            <path id="Trazado_719672" data-name="Trazado 719672" d="M228.325,128.559l22.457-59.891c8.185-21.6,2.44-44.361-19.375-51.945l-2.057-.584a41.288,41.288,0,0,0-49.955,25.294C172.4,60.192,164.92,81.007,162.127,91.342c-5.782,21.4,14.6,30.756,14.6,30.756.047.016.177-.327-1.867,5.848L185.7,157.2Z" transform="translate(23.603 2.134)" fill="#ffc09d"/>
            <path id="Trazado_719673" data-name="Trazado 719673" d="M174.971,108.4s13.215,4.6,30.087-.336c0,0-11.223,14.135-31.953,6.184Z" transform="translate(25.363 15.833)" fill="#ff9b6c"/>
            <path id="Trazado_719674" data-name="Trazado 719674" d="M177.9,56.085a3.163,3.163,0,0,0,2.065,3.9,3.026,3.026,0,0,0,3.916-1.855,3.168,3.168,0,0,0-2.06-3.906,3.03,3.03,0,0,0-3.921,1.857" transform="translate(26.044 7.919)" fill="#263238"/>
            <path id="Trazado_719675" data-name="Trazado 719675" d="M178.685,47.569c.265.5,3.055-.549,6.33.389,3.284.89,5.21,3.256,5.679,2.956.225-.127.045-.954-.787-2.013a8.688,8.688,0,0,0-4.407-2.857,8.345,8.345,0,0,0-5.179.187c-1.227.487-1.771,1.108-1.636,1.339" transform="translate(26.178 6.699)" fill="#263238"/>
            <path id="Trazado_719676" data-name="Trazado 719676" d="M201.605,64.9a3.165,3.165,0,0,0,2.065,3.9,3.025,3.025,0,0,0,3.917-1.855,3.166,3.166,0,0,0-2.061-3.905,3.029,3.029,0,0,0-3.92,1.856" transform="translate(29.518 9.212)" fill="#263238"/>
            <path id="Trazado_719677" data-name="Trazado 719677" d="M206.51,56.173c.266.5,3.059-.547,6.331.39,3.282.89,5.21,3.257,5.68,2.956.224-.128.046-.952-.789-2.012a8.688,8.688,0,0,0-4.407-2.858,8.354,8.354,0,0,0-5.179.186c-1.223.488-1.77,1.11-1.636,1.339" transform="translate(30.254 7.96)" fill="#263238"/>
            <path id="Trazado_719678" data-name="Trazado 719678" d="M191.026,78.424c.068-.182-1.869-1.111-5.049-2.47-.813-.323-1.557-.713-1.535-1.324a4.417,4.417,0,0,1,1.261-2.322q2.04-2.7,4.28-5.67c6.008-8.1,10.61-14.849,10.282-15.088S194.8,57.68,188.792,65.776q-2.191,3-4.187,5.737a5.038,5.038,0,0,0-1.366,3.161,2.182,2.182,0,0,0,1.03,1.613,5.916,5.916,0,0,0,1.366.6c3.27,1.12,5.326,1.719,5.391,1.536" transform="translate(26.847 7.552)" fill="#263238"/>
            <path id="Trazado_719679" data-name="Trazado 719679" d="M208.117,46.963c.208.963,3.637.985,7.53,2,3.915.937,6.951,2.529,7.588,1.778.288-.362-.151-1.3-1.322-2.364A13.539,13.539,0,0,0,210.395,45.5c-1.533.389-2.363,1.01-2.278,1.465" transform="translate(30.492 6.621)" fill="#263238"/>
            <path id="Trazado_719680" data-name="Trazado 719680" d="M180.937,39.133c.456.944,3.343.971,6.548,1.892,3.231.827,5.749,2.267,6.6,1.677.385-.294.182-1.164-.789-2.22a10.736,10.736,0,0,0-4.944-2.8,10.571,10.571,0,0,0-5.653-.071c-1.356.423-1.956,1.075-1.766,1.526" transform="translate(26.506 5.459)" fill="#263238"/>
            <path id="Trazado_719681" data-name="Trazado 719681" d="M234.923,75.094c.407-.054,15.877-.179,11.279,14.265s-19.409,6.759-19.3,6.337,8.023-20.6,8.023-20.6" transform="translate(33.245 11.002)" fill="#ffc09d"/>
            <path id="Trazado_719682" data-name="Trazado 719682" d="M233.37,90.955c.078-.026.2.256.558.586a2.638,2.638,0,0,0,1.869.637c1.7-.073,3.761-2.088,4.659-4.669a8.732,8.732,0,0,0,.443-3.827,3.054,3.054,0,0,0-1.277-2.534,1.344,1.344,0,0,0-1.7.218c-.322.342-.322.659-.407.659-.052.024-.233-.341.073-.9a1.679,1.679,0,0,1,.856-.723,1.992,1.992,0,0,1,1.509.075,3.713,3.713,0,0,1,1.916,3.076,8.976,8.976,0,0,1-.41,4.3c-1.019,2.881-3.375,5.131-5.656,5.069a2.827,2.827,0,0,1-2.18-1.114c-.334-.5-.307-.846-.249-.856" transform="translate(34.188 11.764)" fill="#ff9b6c"/>
            <path id="Trazado_719683" data-name="Trazado 719683" d="M157.2,15.069a3.6,3.6,0,0,1,2.24-1.492c1.966-.454,3.832.279,5.684.832a31.933,31.933,0,0,0,14.274.859,15.8,15.8,0,0,1-3.025-3.959c-1.6-3.069-1.815-7.061.242-9.845A2.107,2.107,0,0,1,178.185.44c1.03.008,1.56,1.19,1.984,2.129,1.392,3.085,3.053,4.747,6.368,5.437a13.451,13.451,0,0,0,6.008.112c.083-.045.162-.1.245-.144,1-.538,1.964-1.047,2.913-1.535l.008,0,0,0c7.142-3.673,13-5.932,18.427-6.347C222.088-.522,234.253,2.058,241,6.315S252.469,18.63,251.109,26.49c5.228-2.184,11.414-.2,15.8,3.413l.144-.015c4.966,3.764,6.276,10.682,6.124,16.912-.009.341-.031.681-.045,1.023a23.257,23.257,0,0,0,5.206,9.736c.441.486.939,1.069.808,1.712s-.813.984-1.431,1.185a11.7,11.7,0,0,1-5.125.451,26.355,26.355,0,0,0,.612,4.52c.294,1.269.639,2.788-.265,3.726a2.475,2.475,0,0,1-2.811.3,7.276,7.276,0,0,1-2.232-2q.229,2.538.455,5.076a13.859,13.859,0,0,1-5.96-2.331c-2.877,4.962-6.9,14.564-9.413,17.747-3.858-1.147-4.657-1.857-6.8-1.828-2.764.039-3.21,4.772-6.07,2.483-1.455-1.165-2.014-8.254-2.035-10.118a86.538,86.538,0,0,1,7.471-36.064,27.819,27.819,0,0,0-6.323-8.5l.179.3c-5.261-3.92-11.307-8.053-17.792-7.051-5.03.777-9.013,4.482-13.4,7.056-8.32,4.877-16.448,6.314-25.761,3.805-2.846,6.119-6.39,16.477-8.584,22.332l-1.317-13.525-.018.047c-.19-.828-.307-1.64-.412-2.448l-.045-.25.008-.026a38.911,38.911,0,0,0-.6-3.918l-.073.033c-4.126,1.826-7.5-4.028-3.863-6.693a8.8,8.8,0,0,1,2.37-1.239,6.173,6.173,0,0,1-6.066-.319,4.843,4.843,0,0,1-1.822-5.6,4.119,4.119,0,0,1,3.336-2.41,13.9,13.9,0,0,1-7.017-4.047c-1.221-1.32-2.24-3.18-1.143-4.893" transform="translate(22.964 0)" fill="#263238"/>
            <path id="Trazado_719684" data-name="Trazado 719684" d="M233.085,23.388A19.264,19.264,0,0,1,234.593,26a15.921,15.921,0,0,1,1.026,8.05A27.994,27.994,0,0,1,234.46,39.6c-.608,1.95-1.424,3.986-2.268,6.138a58.359,58.359,0,0,0-2.352,6.886,25.537,25.537,0,0,0-.68,3.81,8,8,0,0,0,.37,4.022A3.347,3.347,0,0,0,232.2,62.4a4.976,4.976,0,0,0,3.167-.668c1.863-1.158,2.839-3.065,3.738-4.734l-.461-.086a18.615,18.615,0,0,0,1.173,5.244,6.612,6.612,0,0,0,3.407,3.543,4.27,4.27,0,0,0,2.3.307,3.688,3.688,0,0,0,1.943-.992,3.8,3.8,0,0,0,1.041-1.732,2.755,2.755,0,0,0-.158-1.86l-.288.128a14.329,14.329,0,0,0,3.466,4.846,12.7,12.7,0,0,0,1.236.992,2.505,2.505,0,0,0,.464.284,2.747,2.747,0,0,0-.413-.354c-.274-.228-.681-.565-1.171-1.046a14.741,14.741,0,0,1-3.293-4.845l-.288.128a2.843,2.843,0,0,1-.853,3.187,3.31,3.31,0,0,1-1.747.869,3.888,3.888,0,0,1-2.08-.3,6.2,6.2,0,0,1-3.146-3.338,18.327,18.327,0,0,1-1.108-5.12l-.089-.774-.371.688c-.9,1.666-1.871,3.487-3.566,4.525a4.478,4.478,0,0,1-2.832.6A2.825,2.825,0,0,1,230,60.235a7.563,7.563,0,0,1-.328-3.756,25.236,25.236,0,0,1,.659-3.734,59.454,59.454,0,0,1,2.3-6.838c.831-2.154,1.636-4.2,2.233-6.185a27.811,27.811,0,0,0,1.112-5.639,15.684,15.684,0,0,0-1.207-8.167,9.018,9.018,0,0,0-1.692-2.528" transform="translate(33.563 3.427)" fill="#455a64"/>
            <path id="Trazado_719685" data-name="Trazado 719685" d="M169.821,25.356a.8.8,0,0,0,.124.2l.406.551a7.382,7.382,0,0,0,.714.859,12.1,12.1,0,0,0,1.073,1.083,19.683,19.683,0,0,0,8.539,4.492,25.143,25.143,0,0,0,14.257-.679A43.541,43.541,0,0,0,209.9,22.687c2.348-2.074,4.432-4.3,6.581-6.292a29.421,29.421,0,0,1,6.762-4.945,15.149,15.149,0,0,1,7.266-1.773,10.83,10.83,0,0,1,3.331.645,11.961,11.961,0,0,1,2.764,1.5,12.844,12.844,0,0,1,4.979,7.9,15.432,15.432,0,0,1,.089,3.516.765.765,0,0,0,.053-.227c.029-.185.063-.407.1-.68a11.143,11.143,0,0,0-.047-2.643,12.639,12.639,0,0,0-1.354-3.959,12.985,12.985,0,0,0-3.606-4.2,12.27,12.27,0,0,0-2.842-1.575,11.209,11.209,0,0,0-3.456-.7,15.508,15.508,0,0,0-7.495,1.775,29.632,29.632,0,0,0-6.894,5c-2.171,2-4.254,4.223-6.581,6.278a43.578,43.578,0,0,1-14.771,9.108,24.991,24.991,0,0,1-14.017.775,19.967,19.967,0,0,1-8.492-4.286,31.1,31.1,0,0,1-2.452-2.542" transform="translate(24.882 1.353)" fill="#455a64"/>
            <path id="Trazado_719686" data-name="Trazado 719686" d="M170.705,14.658a3.432,3.432,0,0,0,.592.768,16.957,16.957,0,0,0,1.886,1.85,22.786,22.786,0,0,0,3.187,2.293,26.129,26.129,0,0,0,4.358,2.041,26.18,26.18,0,0,0,4.677,1.136,22.967,22.967,0,0,0,3.92.209,17.229,17.229,0,0,0,2.629-.264,3.473,3.473,0,0,0,.942-.228c-.015-.1-1.372.135-3.576.124a25.89,25.89,0,0,1-3.845-.313,28.4,28.4,0,0,1-4.576-1.153,28.566,28.566,0,0,1-4.288-1.964,26.284,26.284,0,0,1-3.2-2.162c-1.724-1.371-2.639-2.4-2.71-2.337" transform="translate(25.011 2.147)" fill="#455a64"/>
            <path id="Trazado_719687" data-name="Trazado 719687" d="M197.551,80.041c-.478-.2-1.611,3.054-5.2,4.4s-6.924-.212-7.107.233c-.116.189.554.9,2,1.447a8.574,8.574,0,0,0,5.869-.01,7.469,7.469,0,0,0,4.148-3.761c.6-1.317.513-2.249.283-2.308" transform="translate(27.14 11.726)" fill="#263238"/>
            <g id="Grupo_1005682" data-name="Grupo 1005682" transform="translate(191.902 45.508)" opacity="0.5">
              <g id="Grupo_1005681" data-name="Grupo 1005681">
                <g id="Grupo_1005680" data-name="Grupo 1005680" clip-path="url(#clip-path-5)">
                  <path id="Trazado_719688" data-name="Trazado 719688" d="M232.932,64.632a5.658,5.658,0,0,0-3.407-7.341c-13.916-4.924-50.423-17.589-52.937-17.6-1.088,0-11.016,23.371-8.919,25.978,4.455,5.54,13.351,6.909,17.045,4.395s7.966-9.069,10.632-6.4-.135,11.677,4.384,14.262,17.217,8.184,23.134,4.27c3.873-2.561,7.809-11.614,10.068-17.566" transform="translate(-167.378 -39.692)" fill="#fff"/>
                </g>
              </g>
            </g>
            <path id="Trazado_719689" data-name="Trazado 719689" d="M225.718,59.385c.21.3,17.374,19.6,17.374,19.6l-8.006-1.6-13.709-7.326Z" transform="translate(32.436 8.701)" fill="#455a64"/>
          </g>
        </g>
      </g>
    </g>
    <g id="Grupo_1005688" data-name="Grupo 1005688" transform="translate(1001.488 9758)">
      <g id="Grupo_1005687" data-name="Grupo 1005687" clip-path="url(#clip-path-6)">
        <path id="Trazado_719690" data-name="Trazado 719690" d="M303.968,57.5l-2.666,1,2.315.657a2.414,2.414,0,0,1,1.635,1.571l.838,2.56,1.03-2.568a2.413,2.413,0,0,1,1.416-1.37l2.341-.85-2.536-1.042a2.41,2.41,0,0,1-1.335-1.366l-.916-2.379-.658,2.213a2.411,2.411,0,0,1-1.464,1.571" transform="translate(25 -67.779)" fill="#ffa031"/>
        <path id="Trazado_719691" data-name="Trazado 719691" d="M23.8,43.849l-2.666,1,2.315.657a2.414,2.414,0,0,1,1.635,1.571l.837,2.56,1.03-2.568A2.413,2.413,0,0,1,28.367,45.7l2.341-.851-2.536-1.042a2.411,2.411,0,0,1-1.335-1.365l-.917-2.38-.657,2.213A2.414,2.414,0,0,1,23.8,43.849" transform="translate(39.867 -54.129)" fill="#ffa031"/>
        <path id="Trazado_719692" data-name="Trazado 719692" d="M394.163,341.816l-2.666,1,2.315.657a2.414,2.414,0,0,1,1.635,1.571l.837,2.56,1.03-2.568a2.413,2.413,0,0,1,1.417-1.369l2.341-.851-2.536-1.042a2.411,2.411,0,0,1-1.335-1.365l-.917-2.38-.657,2.213a2.415,2.415,0,0,1-1.464,1.572" fill="#ffa031"/>
        <path id="Trazado_719693" data-name="Trazado 719693" d="M320.921,33.986l-4.965,1.866,4.311,1.223A4.494,4.494,0,0,1,323.312,40l1.56,4.767,1.918-4.781a4.492,4.492,0,0,1,2.637-2.551l4.36-1.584-4.723-1.94a4.492,4.492,0,0,1-2.486-2.542l-1.706-4.433-1.224,4.122a4.5,4.5,0,0,1-2.727,2.927" transform="translate(25 -67.779)" fill="#ffa031"/>
        <path id="Trazado_719694" data-name="Trazado 719694" d="M21.326,270.883l-2.666,1,2.315.657a2.414,2.414,0,0,1,1.635,1.571l.837,2.56,1.03-2.568a2.413,2.413,0,0,1,1.417-1.369l2.341-.851L25.7,270.843a2.411,2.411,0,0,1-1.335-1.365l-.917-2.38-.657,2.213a2.414,2.414,0,0,1-1.464,1.572" transform="translate(109.201 11.345)" fill="#ffa031"/>
        <path id="Trazado_719695" data-name="Trazado 719695" d="M38.279,247.372l-4.965,1.866,4.311,1.223a4.494,4.494,0,0,1,3.045,2.926l1.56,4.767,1.918-4.782a4.49,4.49,0,0,1,2.637-2.55l4.36-1.584-4.723-1.94a4.5,4.5,0,0,1-2.486-2.542l-1.706-4.433-1.224,4.122a4.5,4.5,0,0,1-2.727,2.927" transform="translate(85 99.896)" fill="#ffa031"/>
        <path id="Trazado_719696" data-name="Trazado 719696" d="M137.175,129.029,132.21,130.9l4.311,1.223a4.494,4.494,0,0,1,3.045,2.926l1.56,4.767,1.918-4.781a4.49,4.49,0,0,1,2.636-2.551l4.361-1.584-4.723-1.94a4.5,4.5,0,0,1-2.486-2.542l-1.706-4.433L139.9,126.1a4.5,4.5,0,0,1-2.727,2.927" transform="translate(-45.041 -75.92)" fill="#ffa031"/>
        <path id="Trazado_719697" data-name="Trazado 719697" d="M54.693,26.913,49.728,28.78,54.039,30a4.492,4.492,0,0,1,3.045,2.925l1.56,4.767,1.918-4.781A4.492,4.492,0,0,1,63.2,30.363l4.36-1.583-4.723-1.94A4.494,4.494,0,0,1,60.35,24.3l-1.706-4.432L57.42,23.987a4.493,4.493,0,0,1-2.727,2.926" transform="translate(-20.133 -35.141)" fill="#ffa031"/>
        <path id="Trazado_719698" data-name="Trazado 719698" d="M355.013,25.357a18.5,18.5,0,0,1,20.7,3.655c8.594-1.319,17.43,6.623,16.894,15.335a22.019,22.019,0,0,1,24.262,12.278,21.329,21.329,0,0,1-34.592,23.648A14.582,14.582,0,0,1,362.6,59.31a18.432,18.432,0,0,1-17.2-13.981,18.431,18.431,0,0,1,9.612-19.972" fill="#ffa031"/>
        <path id="Trazado_719699" data-name="Trazado 719699" d="M246.973,18.076A10.766,10.766,0,0,1,259.384,9.61c.223-5.675,6.1-10.44,11.694-9.489s9.8,6.443,8.136,11.873c6.131,1.15,12.105,8.71,10.118,14.623s-9.683,9.094-15.264,6.309A9.339,9.339,0,0,1,256.112,30a10.766,10.766,0,0,1-9.139-11.924" transform="translate(25 -67.779)" fill="#ffa031"/>
        <path id="Trazado_719700" data-name="Trazado 719700" d="M.113,203.674a10.767,10.767,0,0,1,12.411-8.467c.223-5.674,6.095-10.439,11.694-9.488s9.8,6.443,8.136,11.873c6.131,1.15,12.1,8.71,10.118,14.623s-9.683,9.094-15.264,6.309a9.628,9.628,0,0,1-10.14,5.668A9.628,9.628,0,0,1,9.252,215.6,10.766,10.766,0,0,1,.113,203.674" transform="translate(85 115.916)" fill="#ffa031"/>
        <path id="Trazado_719701" data-name="Trazado 719701" d="M319,340.062a8.5,8.5,0,0,1,9.386,4.6l-.006-.022c5.785-3.706,11.869,1,13.225,5.355a12.147,12.147,0,1,1-1.712,19.472,11.232,11.232,0,0,1-21.017-7.877c-3.959-2.33-6.969-6.514-7.17-11.1s2.833-9.327,7.294-10.42" transform="translate(40.056 45)" fill="#ffa031"/>
      </g>
    </g>
  </g>
</svg>
